<?xml version="1.0" encoding="utf-8"?>
<!-- Generator: Adobe Illustrator 16.0.1, SVG Export Plug-In . SVG Version: 6.00 Build 0)  -->
<!DOCTYPE svg PUBLIC "-//W3C//DTD SVG 1.1//EN" "http://www.w3.org/Graphics/SVG/1.1/DTD/svg11.dtd">
<svg version="1.1" id="Layer_1" xmlns="http://www.w3.org/2000/svg" xmlns:xlink="http://www.w3.org/1999/xlink" x="0px" y="0px"
	 width="512px" height="270px" viewBox="0 0 512 270" enable-background="new 0 0 512 270" xml:space="preserve">
<g>
	<path fill="#2E2D2B" d="M340.631,263.062L340.631,263.062c-0.806,0-3.896-0.209-4.326-6.205c-0.127-1.752,1.307-4.316,2.697-5.82
		c1.051-1.135,2.217-2.788,4.725-13.01c0.559-2.275,0.959-4.26,1.178-5.146c2.406-10.242,3.844-21.527,5.355-33.473
		c0.928-7.316,1.891-14.881,3.11-22.387c3.155-19.518,6.769-39.358,10.733-58.981c3.939-19.545,8.742-38.643,14.271-56.762
		c5.332-17.467,12.151-32.373,21.471-46.905c0.279-0.408,6.665-9.728,11.183-9.728c1.501,0,2.619,0.938,3.333,2.788l0.008,0.009
		c0.467,0.931,1.779,4.192-1.022,6.995c-0.083,0.079-7.709,7.583-10.777,13.569c0,0-6.848,10.473-14.404,31.065
		c-5.787,15.77-10.299,32.576-14.205,49.663c-3.925,17.112-10.154,58.795-11.542,70.877c-0.553,4.822-1.037,7.479-1.866,13.968
		c0.447-0.257,8.648-17.788,15.42-18.142c2.73-0.145,7.489,3.323,7.894,15.258c0.159,4.832-1.677,23.115-1.709,23.76
		c-0.321,6.822,1.221,13.807,6.93,13.865c0.899,0.008,1.788-0.336,2.644-0.663c0.844-0.317,1.637-0.616,2.445-0.616
		c0.749,0,1.391,0.258,1.958,0.795c0.711,0.668,0.593,1.334,0.462,1.67c-0.804,2.023-6.656,3.348-9.445,3.317
		c-15.795-0.171-12.17-26.981-11.818-35.107c0.117-2.776,1.08-8.889-0.266-8.657c-1.181,0.201-6.482,6.748-10.047,15.164
		c-3.326,7.855-6.944,20.18-8.608,27.047C353.074,244.998,346.055,263.061,340.631,263.062z"/>
</g>
<g>
	<path fill="#2E2D2B" d="M296.729,263.133c-2.34,0-3.83-2.029-4.347-3.23c-0.854-1.939-0.481-4.084,1.649-6.327
		c1.9-1.996,1.938-4.269,11.525-49.541c1.195-5.65,4.219-20.681,5.633-27.988c1.658-8.571,3.233-16.721,4.021-19.917
		c-2.4,0.671-9.467,2.78-14.359,4.257c0,0-2.358,0.849-2.656-1.421c-0.354-2.742,4.684-8.213,6.486-8.917
		c1.639-0.639,4.336-1.405,6.717-2.075l1.217-0.35c1.383-0.398,3.4-0.917,4.57-1.268c13.346-61.246,33.373-104.749,36.867-110.296
		l-0.016-0.011c5.648-11.089,13.75-13.395,14.148-13.395c0.75,0,1.078,0.426,1.207,0.679c0.27,0.54,1.465,2.3-4.889,11.003
		c-9.771,13.384-19.277,28.645-35.863,100.939c-0.721,3.138-1.219,5.669-2.004,9.082c1.859-0.416,5.502-1.453,7.948-2.176
		c0.915-0.271,1.771-0.525,2.479-0.729c0.892-0.26,2.918-0.977,5.261-1.807c6.278-2.224,11.19-3.929,12.579-3.929
		c0.126,0,0.513,0,0.722,0.318c0.12,0.186,0.136,0.411,0.045,0.623c-1.7,3.879-27.688,15.003-30.595,16.114
		c-0.561,1.416-2.042,7.752-2.623,9.93c-1.365,5.126-2.766,11.394-5.814,27.293c-1.576,8.229-2.836,16.345-4.176,24.169
		c-3.789,22.112-7.016,38.521-8.011,41.836C302.904,261.16,299.282,263.133,296.729,263.133z"/>
</g>
<g>
	<path fill="#2E2D2B" d="M417.852,226.898c-5.137,0-9.883-1.791-14.114-5.32c-4.739-3.957-6.919-9.375-6.487-16.102
		c-0.133-0.039-0.379-0.066-0.555-0.091c-0.809-0.098-2.024-0.245-2.438-1.516c-0.495-1.533,1.272-2.675,2.695-3.593
		c0.507-0.324,1.272-0.821,1.367-1.036c1.604-5.942,4.521-10.851,5.421-12.095c11.734-16.229,25.471-21.03,35.286-21.03
		c6.648,0,11.387,2.438,12.358,6.362c1.268,5.11-4.139,11.275-14.822,16.914c-3.512,1.729-7.193,3.379-10.757,4.975
		c-5.713,2.556-11.113,4.97-14.817,7.295c-1.275,7.137-1.038,16.384,7.513,16.384c6.062,0,12.434-4.957,17.089-8.578
		c2.808-2.179,4.657-3.618,5.874-3.618c0.512,0,0.812,0.248,0.974,0.455c0.507,0.646,0.483,1.906-0.086,4.221
		c-0.801,3.281-3.982,7.32-8.298,10.549C429.029,224.83,423.273,226.898,417.852,226.898z M438.93,171.383
		c-5.854,0-23.375,5.061-27.021,23.282c1.263-0.681,3.135-1.618,5.358-2.742c9.079-4.569,27.977-14.081,28.19-18.412
		C445.473,173.229,445.039,170.839,438.93,171.383z"/>
</g>
<g>
	<path fill="#2E2D2B" d="M257.271,226.552c-6.588,0-12.254-2.29-16.843-6.8c-7.339-7.227-5.386-17.266-2.458-24.41
		c1.579-3.857,3.488-7.017,4.813-8.988c10.665-17.053,31.208-22.723,37.158-23.051c10.438-0.58,16.152,3.949,17.17,9.607
		c0.565,3.143-0.211,11.223-19.521,18.393c-0.2,0.082-21.418,8.459-28.345,12.053c-0.975,4.146-0.562,7.877,1.568,10.328
		c2.392,2.586,6.047,2.849,9.398,2.849c6.987,0,13.42-3.998,18.118-6.913c2.568-1.598,4.426-2.753,5.634-2.753
		c0.595,0,0.937,0.272,1.122,0.503c0.502,0.632,0.523,1.812,0.066,3.826c-0.65,2.871-4.353,6.722-9.432,9.812
		C272.318,223.076,265.398,226.552,257.271,226.552z M284.747,170.463c-5.767,0-13.644,2.782-20.067,7.09
		c-7.363,4.941-12.085,11.258-13.966,18.293c4.44-2.359,11.224-5.406,18.474-8.512c10.154-4.354,21.018-9.562,21.762-13.266
		c0.138-0.687-0.096-1.33-0.713-1.965C289.232,171.025,287.337,170.463,284.747,170.463z"/>
</g>
<g>
	<path fill="#2E2D2B" d="M502.55,52.406c-0.943,3.147-20.617,83.369-29.365,119.111c-2.062,8.443-3.565,14.59-4.162,17
		c-1.178,4.785-2.453,9.906-3.699,14.861c-2.817,11.264-5.681,22.924-7.718,31.812c-5.939,25.933-12.755,28.312-14.798,28.312
		c-2.37,0-4.13-1.567-4.752-3.028c-0.854-1.945-0.329-3.964,1.659-6.348l0.107-0.131c1.266-1.521,5.213-8.189,7.084-14.484
		c1.281-4.303,4.144-13.584,5.516-19.809c2.691-12.23,4.389-19.943,7.352-31.697c2.731-10.854,6.223-26.386,9.598-41.406
		c2.414-10.73,4.691-20.868,6.555-28.686c4.105-17.047,16.123-60.183,19.333-80.16c0.562-3.51,1.144-7.14,1.829-10.745
		c0.141-1.269,0.934-7.283,3.531-7.283c2.188,0,7.944,9.382,6.033,16.653L502.55,52.406z"/>
</g>
<g>
	<path fill="#2E2D2B" d="M161.599,115.37c66.608-10.673,143.387,59.108-8.501,126.729c-48.757,19.508-91.704,21.523-123.334,18.779
		c-34.611-3.816-28.302-31.807-19.517-24.67c22.034,17.9,82.032,21.094,132.193,2.323c125.496-51.707,78.652-114.65,37.883-115.517
		c-20.871-0.444-54.361,4.116-71.479,13.69c-13.235,32.509-23.583,64.055-24.809,68.271c-6.75,20.551-7.402,33.301-13.754,33.953
		c-2.378,0.243-11.396-0.068-7.997-9.998c1.643-4.811,5.602-11.67,7.93-15.713c6.717-11.673,21.595-57.117,25.451-72.181
		c-5.824,0.201-3.795-8.964-1.931-13.471c1.448-3.503,5.483-2.193,8.406-3.411c1.162-4.024,5.206-14.469,6.682-18.424
		c7.854-22.069,20.123-38.476,21.61-21.988c0.471,5.227-11.2,22.72-16.596,38.707c57.578-15.146,88.947-46.366,86.47-60.742
		c-1.771-10.273-19.144-12.483-65.887-2.876c-44.269,9.097-74.842,29.096-75.186,42.41c-0.848,13.994-19.013-10.049-8.201-16.359
		C87.68,61.575,212.104,23.932,209.471,66.696c-0.393,10.981-11.497,23.627-28.652,35.062
		c-14.482,9.653-19.391,10.441-28.091,14.915L161.599,115.37z"/>
</g>
</svg>
