<?xml version="1.0" encoding="utf-8"?>
<!-- Generator: Adobe Illustrator 16.0.1, SVG Export Plug-In . SVG Version: 6.00 Build 0)  -->
<!DOCTYPE svg PUBLIC "-//W3C//DTD SVG 1.1//EN" "http://www.w3.org/Graphics/SVG/1.1/DTD/svg11.dtd">
<svg version="1.1" id="Layer_1" xmlns="http://www.w3.org/2000/svg" xmlns:xlink="http://www.w3.org/1999/xlink" x="0px" y="0px"
	 width="512px" height="195px" viewBox="0 0 512 195" enable-background="new 0 0 512 195" xml:space="preserve">
<g>
	<path fill="#6D6E71" d="M249.096,191.044L249.096,191.044c-0.591,0-2.86-0.153-3.176-4.556c-0.093-1.285,0.959-3.169,1.98-4.273
		c0.771-0.833,1.627-2.046,3.468-9.55c0.409-1.669,0.704-3.127,0.864-3.776c1.766-7.52,2.821-15.803,3.932-24.571
		c0.681-5.371,1.388-10.923,2.283-16.432c2.317-14.329,4.968-28.893,7.88-43.298c2.892-14.347,6.417-28.366,10.475-41.667
		c3.914-12.822,8.92-23.764,15.761-34.432c0.205-0.299,4.893-7.141,8.208-7.141c1.103,0,1.923,0.688,2.446,2.047l0.006,0.007
		c0.343,0.684,1.307,3.077-0.75,5.135c-0.062,0.058-5.659,5.567-7.912,9.96c0,0-5.026,7.688-10.574,22.804
		c-4.248,11.576-7.56,23.913-10.427,36.456c-2.882,12.561-7.455,43.16-8.473,52.028c-0.405,3.541-0.761,5.492-1.37,10.255
		c0.329-0.19,6.349-13.059,11.318-13.317c2.005-0.106,5.498,2.44,5.794,11.2c0.118,3.547-1.229,16.968-1.254,17.44
		c-0.235,5.009,0.896,10.136,5.087,10.178c0.661,0.005,1.312-0.246,1.94-0.486c0.619-0.233,1.201-0.453,1.795-0.453
		c0.55,0,1.02,0.19,1.438,0.584c0.522,0.49,0.435,0.979,0.339,1.226c-0.59,1.486-4.886,2.458-6.934,2.437
		c-11.595-0.127-8.934-19.806-8.676-25.772c0.086-2.037,0.793-6.524-0.194-6.355c-0.866,0.148-4.759,4.955-7.376,11.133
		c-2.44,5.767-5.097,14.812-6.318,19.854C258.23,177.781,253.077,191.041,249.096,191.044z"/>
</g>
<g>
	<path fill="#6D6E71" d="M216.868,191.095c-1.717,0-2.811-1.49-3.19-2.371c-0.627-1.426-0.354-2.999,1.211-4.646
		c1.395-1.465,1.423-3.131,8.46-36.365c0.878-4.148,3.097-15.181,4.135-20.545c1.218-6.293,2.374-12.275,2.952-14.621
		c-1.763,0.492-6.949,2.041-10.541,3.125c0,0-1.732,0.623-1.95-1.043c-0.26-2.014,3.438-6.029,4.761-6.546
		c1.203-0.469,3.183-1.031,4.931-1.522l0.893-0.258c1.015-0.292,2.496-0.673,3.355-0.93c9.796-44.958,24.499-76.892,27.064-80.964
		l-0.013-0.008c4.147-8.14,10.094-9.833,10.386-9.833c0.552,0,0.793,0.313,0.887,0.499c0.198,0.396,1.076,1.688-3.588,8.077
		c-7.174,9.824-14.151,21.027-26.327,74.097c-0.528,2.303-0.894,4.162-1.47,6.667c1.365-0.307,4.039-1.067,5.834-1.599
		c0.672-0.198,1.299-0.385,1.82-0.534c0.654-0.189,2.143-0.716,3.862-1.325c4.609-1.633,8.214-2.883,9.234-2.883
		c0.092,0,0.376,0,0.53,0.233c0.088,0.135,0.099,0.302,0.032,0.458c-1.248,2.846-20.324,11.012-22.458,11.828
		c-0.411,1.038-1.5,5.689-1.926,7.288c-1.002,3.764-2.029,8.364-4.269,20.035c-1.156,6.041-2.081,11.998-3.064,17.742
		c-2.782,16.231-5.15,28.274-5.88,30.709C221.403,189.646,218.744,191.095,216.868,191.095z"/>
</g>
<g>
	<path fill="#6D6E71" d="M305.78,164.497c-3.771,0-7.254-1.315-10.361-3.907c-3.479-2.904-5.079-6.881-4.762-11.819
		c-0.098-0.028-0.278-0.048-0.407-0.065c-0.593-0.071-1.486-0.181-1.789-1.113c-0.364-1.124,0.934-1.962,1.979-2.636
		c0.372-0.239,0.935-0.604,1.004-0.762c1.177-4.361,3.318-7.965,3.979-8.877c8.615-11.913,18.697-15.438,25.902-15.438
		c4.882,0,8.358,1.789,9.072,4.67c0.93,3.752-3.037,8.277-10.881,12.417c-2.577,1.27-5.28,2.479-7.896,3.65
		c-4.193,1.876-8.158,3.648-10.877,5.355c-0.937,5.238-0.763,12.025,5.515,12.025c4.449,0,9.126-3.638,12.544-6.297
		c2.061-1.599,3.419-2.656,4.312-2.656c0.375,0,0.596,0.183,0.714,0.335c0.372,0.474,0.354,1.399-0.062,3.099
		c-0.589,2.406-2.924,5.373-6.092,7.743C313.986,162.978,309.761,164.497,305.78,164.497z M321.254,123.745
		c-4.299,0-17.159,3.715-19.836,17.09c0.927-0.499,2.301-1.188,3.934-2.013c6.665-3.354,20.536-10.337,20.693-13.516
		C326.057,125.099,325.738,123.345,321.254,123.745z"/>
</g>
<g>
	<path fill="#6D6E71" d="M187.904,164.241c-4.836,0-8.995-1.68-12.363-4.991c-5.387-5.306-3.954-12.674-1.805-17.918
		c1.159-2.833,2.561-5.151,3.533-6.599c7.829-12.517,22.909-16.68,27.276-16.921c7.663-0.426,11.857,2.9,12.604,7.054
		c0.416,2.307-0.154,8.237-14.33,13.5c-0.147,0.06-15.721,6.21-20.806,8.848c-0.715,3.043-0.413,5.782,1.151,7.581
		c1.756,1.9,4.44,2.092,6.898,2.092c5.129,0,9.851-2.936,13.3-5.075c1.885-1.172,3.249-2.021,4.135-2.021
		c0.436,0,0.688,0.201,0.823,0.369c0.369,0.464,0.385,1.329,0.05,2.808c-0.479,2.108-3.195,4.935-6.923,7.204
		C198.951,161.69,193.871,164.241,187.904,164.241z M208.073,123.069c-4.233,0-10.014,2.042-14.73,5.204
		c-5.405,3.627-8.872,8.264-10.251,13.428c3.259-1.73,8.239-3.969,13.561-6.247c7.454-3.197,15.428-7.021,15.974-9.739
		c0.101-0.503-0.07-0.976-0.523-1.442C211.366,123.482,209.975,123.069,208.073,123.069z"/>
</g>
<g>
	<path fill="#6D6E71" d="M367.954,36.408c-0.692,2.31-15.134,61.199-21.556,87.435c-1.515,6.198-2.618,10.71-3.056,12.479
		c-0.864,3.513-1.801,7.271-2.716,10.909c-2.068,8.269-4.169,16.828-5.665,23.353c-4.36,19.036-9.362,20.782-10.862,20.782
		c-1.74,0-3.031-1.151-3.487-2.224c-0.628-1.428-0.242-2.909,1.218-4.658l0.079-0.097c0.929-1.116,3.826-6.012,5.199-10.633
		c0.941-3.158,3.042-9.971,4.049-14.541c1.977-8.978,3.222-14.64,5.396-23.267c2.006-7.969,4.568-19.369,7.046-30.395
		c1.772-7.878,3.444-15.319,4.812-21.058c3.014-12.514,11.836-44.178,14.192-58.842c0.412-2.577,0.838-5.241,1.342-7.887
		c0.104-0.932,0.685-5.346,2.593-5.346c1.605,0,5.831,6.887,4.429,12.225L367.954,36.408z"/>
</g>
<g>
	<path fill-rule="evenodd" clip-rule="evenodd" fill="#6D6E71" d="M117.675,82.627c48.895-7.834,105.256,43.39-6.24,93.028
		c-35.791,14.319-67.316,15.8-90.536,13.784c-25.407-2.801-20.775-23.348-14.326-18.109c16.174,13.141,60.217,15.485,97.038,1.706
		c92.122-37.957,57.736-84.16,27.809-84.797c-15.32-0.326-39.904,3.021-52.47,10.049c-9.716,23.864-17.311,47.021-18.211,50.116
		c-4.955,15.086-5.434,24.444-10.096,24.924c-1.746,0.179-8.365-0.05-5.87-7.338c1.206-3.532,4.112-8.568,5.821-11.535
		c4.931-8.568,15.852-41.928,18.682-52.985c-4.275,0.147-2.786-6.58-1.417-9.889c1.063-2.571,4.025-1.61,6.171-2.504
		c0.853-2.954,3.822-10.622,4.905-13.524c5.765-16.2,14.771-28.243,15.864-16.141c0.345,3.837-8.222,16.678-12.183,28.413
		c42.266-11.118,65.293-34.035,63.475-44.588c-1.3-7.541-14.053-9.164-48.365-2.111c-32.496,6.678-54.939,21.358-55.192,31.131
		c-0.622,10.272-13.957-7.376-6.02-12.009c26.902-17.11,118.237-44.743,116.305-13.351c-0.289,8.061-8.439,17.344-21.032,25.739
		c-10.631,7.086-14.234,7.665-20.621,10.948L117.675,82.627z"/>
</g>
<g>
	<path fill="#6D6E71" d="M399.697,137.769h14.287v19.492c-2.337,0.761-4.581,1.301-6.732,1.619
		c-2.151,0.319-4.475,0.479-6.971,0.479c-5.878,0-10.41-1.739-13.597-5.219c-3.187-3.479-4.78-8.387-4.78-14.725
		c0-6.249,1.797-11.141,5.392-14.672c3.594-3.532,8.541-5.298,14.844-5.298c4.055,0,7.896,0.779,11.525,2.337l-2.23,5.284
		c-3.151-1.451-6.303-2.178-9.454-2.178c-4.143,0-7.418,1.302-9.825,3.904c-2.408,2.603-3.611,6.16-3.611,10.675
		c0,4.745,1.084,8.352,3.253,10.821c2.168,2.47,5.288,3.705,9.36,3.705c2.054,0,4.249-0.257,6.586-0.771v-10.012h-8.046V137.769z"/>
	<path fill="#6D6E71" d="M426.573,158.827v-38.824h6.347v38.824H426.573z"/>
	<path fill="#6D6E71" d="M469.191,120.003h6.586l-13.597,38.824h-6.692l-13.543-38.824h6.532l8.1,24.139
		c0.425,1.151,0.877,2.634,1.354,4.448c0.479,1.815,0.788,3.165,0.93,4.05c0.229-1.345,0.584-2.903,1.062-4.674
		c0.478-1.771,0.867-3.08,1.168-3.931L469.191,120.003z"/>
	<path fill="#6D6E71" d="M506.802,158.827H484.84v-38.824h21.962v5.364h-15.615v10.569h14.633v5.311h-14.633v12.189h15.615V158.827z
		"/>
</g>
</svg>
